<svg version="1.1" xmlns="http://www.w3.org/2000/svg" xmlns:xlink="http://www.w3.org/1999/xlink" width="800px" height="800px" viewBox="0,0,256,256"><g fill="#ffffff" fill-rule="evenodd" stroke="none" stroke-width="1" stroke-linecap="butt" stroke-linejoin="miter" stroke-miterlimit="10" stroke-dasharray="" stroke-dashoffset="0" font-family="none" font-weight="none" font-size="none" text-anchor="none" style="mix-blend-mode: normal"><g transform="translate(-0.00004,-0.00004)"><g><g transform="scale(10.66667,10.66667)"><path d="M20,1c1.6569,0 3,1.34315 3,3v16c0,1.6569 -1.3431,3 -3,3h-16c-1.65685,0 -3,-1.3431 -3,-3v-16c0,-1.65685 1.34315,-3 3,-3zM20,3c0.5523,0 1,0.44772 1,1v16c0,0.5523 -0.4477,1 -1,1h-5v-7.0001h2.0762c0.4304,0 0.8125,-0.2754 0.9487,-0.6838l0.443,-1.329c0.1619,-0.4857 -0.1996,-0.9872 -0.7115,-0.9872h-2.7564v-1.99998c0,-0.5 0.5,-1 1,-1h2c0.5523,0 1,-0.44772 1,-1v-0.68599c0,-0.32302 -0.2063,-0.61263 -0.5187,-0.69506c-1.3108,-0.34592 -2.4813,-0.34592 -2.4813,-0.34592c-2.5,0 -4,1.72697 -4,3.22697v2.49998h-2c-0.55228,0 -1,0.4477 -1,1v1c0,0.5523 0.44771,1 1,1h2v7.0001h-8c-0.55228,0 -1,-0.4477 -1,-1v-16c0,-0.55228 0.44772,-1 1,-1z"></path></g></g></g></g></svg>