<svg version="1.1" xmlns="http://www.w3.org/2000/svg" xmlns:xlink="http://www.w3.org/1999/xlink" width="589.000000pt" height="601.000000pt" viewBox="0,0,250.875,256"><g fill="#000000" fill-rule="nonzero" stroke="none" stroke-width="1" stroke-linecap="butt" stroke-linejoin="miter" stroke-miterlimit="10" stroke-dasharray="" stroke-dashoffset="0" font-family="none" font-weight="none" font-size="none" text-anchor="none" style="mix-blend-mode: normal"><g transform="translate(-0.12886,0.02235) scale(0.42596,0.42596)"><g transform="translate(0,601) scale(0.1,-0.1)"><path d="M2735,6004c-190,-19 -404,-78 -545,-149c-167,-84 -286,-172 -422,-311c-135,-139 -1395,-1569 -1469,-1667c-74,-99 -163,-262 -204,-377c-86,-240 -106,-497 -61,-801c37,-250 90,-420 189,-596c51,-91 146,-218 224,-299c44,-46 1050,-940 1603,-1424c210,-184 439,-297 713,-352c146,-29 405,-31 542,-5c290,56 548,183 748,368c75,69 1377,1532 1510,1696c151,188 254,415 304,668c38,197 14,556 -53,805c-67,249 -194,468 -374,650c-114,115 -1615,1443 -1715,1518c-156,115 -409,221 -615,256c-96,17 -302,27 -375,20zM3182,5431c186,-43 388,-143 528,-260c148,-123 1431,-1265 1455,-1293c14,-18 34,-42 43,-53c82,-100 170,-266 217,-409c123,-375 69,-785 -146,-1113c-57,-87 -1277,-1474 -1371,-1558c-317,-286 -769,-396 -1188,-290c-163,41 -346,130 -470,228c-156,124 -1462,1294 -1512,1355c-164,198 -262,437 -290,709c-34,331 80,699 295,948c141,163 1215,1374 1242,1401c180,176 424,300 687,350c108,20 396,12 510,-15z"></path><path d="M2850,4553c-8,-3 -66,-30 -128,-59c-144,-68 -215,-133 -271,-245c-54,-108 -67,-174 -52,-269c7,-41 23,-145 36,-230c29,-190 34,-211 54,-230c13,-13 14,-13 9,2c-5,12 -2,16 13,15c10,-1 19,-5 19,-10c0,-4 5,-5 10,-2c6,3 10,1 10,-5c0,-7 -8,-9 -21,-5c-19,6 -20,5 -8,-8c8,-8 18,-12 23,-9c5,3 6,0 2,-6c-4,-6 -13,-9 -20,-6c-8,3 -17,0 -22,-7c-4,-8 -3,-10 4,-5c7,4 12,3 12,-2c0,-5 11,-7 25,-4c16,3 25,0 25,-8c0,-7 -6,-10 -14,-7c-14,6 -36,-10 -36,-26c0,-5 7,-4 15,3c8,7 15,9 15,6c0,-4 9,-2 20,4c20,11 170,21 170,12c0,-11 -45,-72 -53,-72c-5,0 -6,-4 -3,-8c2,-4 -12,-10 -32,-12c-75,-7 -97,-5 -95,7c2,7 -3,10 -11,7c-8,-3 -21,12 -34,43c-18,40 -21,43 -22,22c0,-15 10,-39 21,-54c18,-22 19,-29 9,-35c-12,-7 -11,-22 4,-87c21,-90 26,-100 78,-169c28,-38 38,-60 38,-88c0,-66 -23,-98 -110,-150c-78,-47 -333,-156 -520,-222l-95,-33l-3,-57l-3,-57l563,6c310,3 570,7 578,9c8,2 25,9 36,16c12,6 24,9 26,6c3,-2 11,2 18,11c7,8 18,15 25,15c8,0 15,3 18,8c2,4 3,2 1,-4c-1,-7 6,-10 18,-6c13,3 16,7 8,12c-8,5 -8,10 -2,14c5,3 12,-1 15,-8c4,-9 -7,-22 -30,-36c-27,-16 -33,-24 -25,-32c9,-9 19,-8 39,2c16,7 31,13 36,12c4,-1 7,2 7,8c0,5 5,10 10,10c6,0 10,-6 10,-14c0,-8 7,-17 16,-20c9,-3 213,-6 455,-6h439v89v89l-27,6c-16,2 -50,8 -77,11c-83,11 -418,118 -484,155c-9,5 -51,23 -92,40c-41,18 -85,42 -96,55l-22,23l-12,-26c-19,-42 -49,-155 -43,-165c5,-8 -7,-47 -29,-92c-10,-23 -54,-44 -83,-41c-24,3 -75,27 -75,35c0,3 4,13 10,21c5,9 5,19 -1,27c-6,7 -8,17 -5,22c4,5 2,12 -3,15c-11,7 -3,45 13,65c6,7 29,25 51,39c50,31 105,87 105,108c0,8 4,12 10,9c5,-3 9,4 9,17c-1,13 5,37 12,55c17,42 -4,148 -28,139c-10,-4 -19,6 -30,32c-8,22 -28,46 -44,56c-16,9 -28,20 -28,24c3,19 -3,22 -21,12c-14,-7 -20,-7 -20,0c0,5 5,10 12,10c6,0 8,3 5,6c-4,4 -13,1 -22,-6c-11,-9 -15,-9 -15,-1c0,17 26,42 35,33c4,-4 -5,13 -19,38c-14,25 -26,48 -26,52c0,4 28,8 62,10c50,2 65,7 73,23c19,35 99,110 133,124c18,7 32,18 32,23c0,6 7,5 15,-2c13,-10 14,-29 9,-106c-6,-79 -5,-94 8,-94c32,0 51,26 53,76c3,62 4,64 17,34l10,-25l14,30c20,45 18,75 -5,75c-11,0 -23,-4 -26,-10c-3,-5 -11,-10 -17,-10c-6,0 -3,9 7,20c10,11 26,20 37,20c14,0 18,8 18,40c0,21 9,61 19,88c30,75 52,197 45,245c-11,73 -35,148 -55,168c-26,26 -64,24 -87,-6c-25,-31 -62,-32 -97,-2c-24,21 -26,25 -14,50c11,24 10,32 -1,50c-8,12 -26,47 -41,77c-15,30 -44,72 -66,92c-44,42 -141,90 -228,113c-57,15 -165,19 -195,8zM2960,4111c0,-12 148,-12 156,0c7,13 59,11 108,-3c88,-25 147,-85 174,-178c24,-80 62,-181 77,-204c16,-24 7,-44 -14,-31c-5,3 -12,-4 -16,-14c-3,-11 -19,-27 -35,-34c-25,-13 -29,-13 -35,1c-3,8 -1,20 4,25c5,5 7,15 5,22c-3,7 7,17 25,23c54,19 36,55 -33,67c-21,4 -47,16 -57,26c-11,11 -22,19 -25,19c-4,0 -13,8 -19,17c-12,15 -31,18 -157,17c-78,-1 -165,-2 -193,-3c-27,-2 -80,1 -117,4c-54,6 -67,11 -71,27c-9,34 2,102 18,111c8,4 15,13 15,20c0,7 9,18 21,25c12,8 18,19 15,28c-4,11 0,13 19,8c14,-3 25,-2 25,4c0,5 10,10 23,10c32,2 55,7 63,15c10,10 24,9 24,-2zM3271,3749c15,-8 24,-7 35,2c41,34 64,-94 29,-161c-34,-65 -107,-99 -182,-85c-50,9 -109,40 -117,61c-11,28 3,29 32,1c15,-14 40,-31 55,-36c40,-15 98,-14 95,2c-2,7 6,11 21,9c25,-4 71,32 71,55c0,17 -47,17 -57,0c-10,-17 -43,-30 -43,-17c0,5 5,12 11,16c6,3 8,18 5,33c-6,25 -6,25 9,7c8,-11 15,-14 15,-8c0,7 9,12 20,12c15,0 19,6 18,25c-1,13 -4,22 -7,20c-2,-3 -9,2 -15,10c-6,9 -25,16 -42,18c-24,2 -31,6 -29,22c1,11 3,21 4,23c3,6 55,1 72,-9zM2540,3709c0,-5 -4,-9 -10,-9c-5,0 -10,7 -10,16c0,8 5,12 10,9c6,-3 10,-10 10,-16zM3020,3680c0,-5 7,-10 15,-10c8,0 15,-5 15,-11c0,-5 -4,-7 -10,-4c-5,3 -13,-7 -16,-22c-7,-25 -8,-25 -15,-8c-11,29 -11,65 1,65c6,0 10,-4 10,-10zM2548,3668c7,-7 12,-30 12,-52c0,-30 7,-47 28,-69l27,-29l-32,16c-38,19 -42,24 -58,86c-15,58 -6,77 23,48zM2974,3617c13,-29 31,-59 40,-66c9,-7 16,-18 16,-23c0,-5 9,-17 20,-26c19,-16 36,-62 23,-62c-3,0 -22,14 -43,30c-26,21 -49,30 -73,30c-20,0 -38,4 -41,9c-3,5 -16,7 -28,3c-13,-3 -19,-1 -15,5c5,7 -1,9 -15,5c-21,-5 -22,-4 -9,11c7,9 11,17 8,17c-11,0 52,118 65,123c20,7 26,0 52,-56zM2510,3560c12,-8 11,-10 -7,-10c-13,0 -23,5 -23,10c0,13 11,13 30,0zM3240,3562c0,-4 -10,-9 -22,-9c-18,-2 -20,0 -8,7c18,12 30,13 30,2zM2585,3480c3,-6 -1,-7 -9,-4c-18,7 -21,14 -7,14c6,0 13,-4 16,-10zM3100,3419c0,-6 9,-24 21,-40c20,-29 20,-31 3,-50c-10,-11 -24,-17 -31,-15c-9,4 -13,-3 -13,-20c0,-14 -3,-24 -7,-22c-47,24 -88,38 -118,40c-19,2 -35,7 -35,11c0,5 -4,5 -10,2c-5,-3 -10,-1 -10,5c0,6 13,16 29,21c22,8 28,15 24,30c-6,22 -6,22 36,8c36,-13 81,3 81,28c0,7 7,13 15,13c8,0 15,-5 15,-11zM3007,3228c-3,-12 -36,-14 -87,-8c-21,3 29,18 63,19c19,1 27,-3 24,-11zM3050,3211c0,-5 10,-7 22,-3c13,3 19,1 15,-5c-4,-6 1,-10 11,-9c9,0 16,-5 15,-11c-2,-7 4,-13 13,-13c8,0 13,-4 9,-10c-6,-10 12,-49 30,-63c7,-6 6,-10 -2,-13c-7,-3 -10,-11 -7,-19c7,-16 -29,-41 -71,-49c-21,-4 -40,0 -64,14c-28,18 -32,26 -29,50c3,17 1,30 -4,30c-5,0 -6,5 -3,10c4,6 11,8 16,5c5,-4 9,-1 9,5c0,7 7,10 14,7c11,-4 13,-1 9,10c-4,9 1,21 12,29c10,8 16,15 12,15c-4,1 -11,3 -17,4c-5,1 -13,3 -16,4c-8,2 6,21 17,21c5,0 9,-4 9,-9zM3224,2599c-8,-13 -40,-16 -51,-4c-8,9 -3,12 22,11c18,-1 31,-4 29,-7z"></path><path d="M3040,3159c0,-5 5,-7 10,-4c6,3 10,8 10,11c0,2 -4,4 -10,4c-5,0 -10,-5 -10,-11z"></path><path d="M3145,2530c-3,-5 -1,-10 4,-10c6,0 11,5 11,10c0,6 -2,10 -4,10c-3,0 -8,-4 -11,-10z"></path><path d="M2304,2399c-18,-30 -25,-103 -29,-316c-3,-136 -1,-243 5,-258c7,-18 17,-25 35,-25c22,0 25,4 25,34c0,18 6,38 13,45c10,8 12,33 9,95c-4,78 -3,85 17,96c36,19 73,8 93,-26c19,-33 26,-143 13,-196c-6,-23 -3,-29 19,-39c32,-15 56,2 56,40c0,14 6,33 13,43c9,11 12,47 10,114c-5,151 -45,214 -138,214c-20,0 -45,-5 -56,-10c-18,-10 -19,-7 -19,75c0,48 -5,95 -10,106c-12,21 -45,26 -56,8zM2476,2145c17,-13 16,-14 -13,-4c-34,11 -42,19 -20,19c7,0 22,-7 33,-15z"></path><path d="M3870,2381c-5,-11 -10,-31 -10,-45c0,-14 -4,-28 -10,-31c-5,-3 -10,-23 -10,-44c0,-35 -1,-37 -36,-39c-96,-7 -150,-87 -174,-262c-10,-73 3,-116 43,-140c37,-23 77,-25 129,-6c31,11 38,11 42,-1c4,-8 16,-13 28,-11c18,2 24,11 26,37c2,19 10,40 17,45c10,9 14,65 18,248c2,130 0,244 -5,252c-12,22 -45,20 -58,-3zM3833,2153c-7,-2 -19,-2 -25,0c-7,3 -2,5 12,5c14,0 19,-2 13,-5zM3840,2026c0,-57 -8,-69 -52,-80c-54,-12 -87,28 -67,82c14,37 36,52 81,52h38zM3736,1872c-10,-2 -22,0 -28,6c-6,6 0,7 19,4c21,-5 23,-7 9,-10z"></path><path d="M4210,2381c-5,-11 -10,-31 -10,-45c0,-14 -4,-28 -10,-31c-6,-4 -10,-96 -10,-244c0,-199 2,-241 15,-251c21,-17 43,-6 50,27c4,15 10,36 16,45c5,10 9,128 9,262c0,213 -2,245 -16,250c-25,10 -33,7 -44,-13z"></path><path d="M1383,2383c-7,-2 -13,-19 -13,-37c0,-18 -4,-36 -9,-41c-12,-14 -23,-466 -11,-485c7,-12 32,-15 113,-15c118,0 142,10 133,56c-3,19 0,29 10,33c10,4 14,16 12,33l-3,28l-88,-4l-88,-3l2,212c1,172 -1,214 -12,221c-15,9 -27,10 -46,2zM1498,1873c-16,-2 -40,-2 -55,0c-16,2 -3,4 27,4c30,0 43,-2 28,-4z"></path><path d="M2952,2368c-7,-7 -12,-24 -12,-38c0,-15 -3,-30 -7,-34c-5,-4 -9,-51 -10,-104c-1,-53 -4,-161 -6,-239l-4,-143l34,-6c19,-4 68,-4 109,-2c89,6 119,23 151,89c53,106 54,186 3,237c-28,29 -29,30 -15,75c21,71 -4,139 -60,163c-42,17 -166,19 -183,2zM3115,2301c3,-6 -10,-7 -32,-4c-50,8 -55,13 -10,13c20,0 38,-4 42,-9zM3091,2221c29,-24 25,-29 -34,-40l-47,-8v33c0,31 3,34 29,34c16,0 39,-9 52,-19zM3140,1997c13,-24 13,-29 0,-37c-8,-5 -43,-10 -77,-10c-60,0 -63,1 -63,24c0,40 26,57 78,54c39,-3 49,-8 62,-31zM3058,1873c-16,-2 -40,-2 -55,0c-16,2 -3,4 27,4c30,0 43,-2 28,-4z"></path><path d="M2087,2344c-4,-4 -7,-21 -7,-38c-1,-40 -21,-66 -52,-66c-13,0 -33,-6 -43,-14c-16,-12 -17,-18 -8,-39c11,-23 10,-27 -7,-32c-21,-7 -26,-31 -11,-53c6,-10 21,-12 55,-7l46,7v-130c0,-114 2,-133 19,-153c26,-32 57,-15 54,29c-2,18 3,32 11,35c11,4 13,28 8,116l-5,111h42c33,0 41,3 41,19c0,24 -18,38 -55,44c-19,2 -11,5 23,6c47,1 52,3 52,24c0,33 -18,47 -61,47h-38l-3,48c-3,42 -6,47 -28,50c-14,2 -29,0 -33,-4z"></path><path d="M4029,2329c-6,-12 -9,-29 -6,-38c2,-10 -2,-26 -9,-36c-19,-26 -18,-52 3,-63c15,-9 15,-15 4,-48c-8,-26 -11,-87 -9,-183c3,-124 5,-145 21,-155c26,-16 53,5 50,40c-1,16 3,32 10,36c15,9 10,326 -5,346c-8,9 -6,22 7,45c14,27 15,38 6,55c-15,29 -57,29 -72,1z"></path><path d="M1683,2220c-18,-7 -23,-17 -23,-43c0,-18 -4,-37 -10,-43c-13,-13 -14,-232 -1,-266c18,-49 88,-76 148,-59c20,6 35,6 38,0c4,-5 17,-9 31,-9c20,0 24,5 24,32c0,17 7,39 14,47c12,13 15,52 17,168c1,83 -1,156 -5,162c-9,14 -43,14 -52,0c-14,-23 -26,-86 -32,-169l-7,-85l-34,-3c-18,-2 -39,2 -45,8c-6,6 -13,64 -16,137c-3,72 -9,128 -15,129c-5,1 -20,-1 -32,-6zM1773,1873c-7,-2 -19,-2 -25,0c-7,3 -2,5 12,5c14,0 19,-2 13,-5z"></path><path d="M3383,2198c-41,-30 -60,-63 -84,-148c-24,-88 -25,-177 -1,-206c36,-45 94,-56 157,-30c29,13 34,12 39,-1c4,-8 15,-13 28,-11c17,2 24,11 26,33c2,17 10,37 17,45c15,17 25,306 12,328c-5,8 -35,12 -85,12c-64,0 -83,-4 -109,-22zM3510,2152c0,-5 -13,-7 -30,-4c-16,2 -30,6 -30,8c0,2 14,4 30,4c17,0 30,-4 30,-8zM3490,2026c0,-57 -8,-69 -53,-80c-45,-11 -67,8 -67,59c0,53 24,75 82,75h38zM3386,1872c-10,-2 -22,0 -28,6c-6,6 0,7 19,4c21,-5 23,-7 9,-10z"></path><path d="M4410,2184c-33,-30 -45,-51 -65,-118c-27,-89 -32,-170 -13,-211c23,-51 95,-69 163,-41c29,13 34,12 39,-1c4,-8 15,-13 28,-11c17,2 24,11 26,33c2,17 10,37 17,45c15,17 25,306 12,328c-5,8 -35,12 -88,12c-77,0 -80,-1 -119,-36zM4550,2152c0,-5 -13,-7 -30,-4c-16,2 -30,6 -30,8c0,2 14,4 30,4c17,0 30,-4 30,-8zM4530,2020v-59l-40,-11c-59,-16 -80,-1 -80,55c0,53 24,75 82,75h38zM4426,1872c-10,-2 -22,0 -28,6c-6,6 0,7 19,4c21,-5 23,-7 9,-10z"></path><path d="M2662,2151c-8,-4 -12,-19 -10,-32c3,-23 6,-24 97,-27c69,-2 97,1 103,10c11,18 10,25 -8,42c-11,12 -36,16 -92,16c-42,0 -83,-4 -90,-9z"></path><path d="M2637,2074c-4,-4 -7,-18 -7,-31c0,-23 2,-23 101,-23h100l-3,28c-3,27 -3,27 -93,30c-50,1 -94,0 -98,-4z"></path></g></g></g></svg>