<svg version="1.1" xmlns="http://www.w3.org/2000/svg" xmlns:xlink="http://www.w3.org/1999/xlink" width="800px" height="800px" viewBox="0,0,256,256"><g fill="#ffffff" fill-rule="none" stroke="none" stroke-width="1" stroke-linecap="butt" stroke-linejoin="miter" stroke-miterlimit="10" stroke-dasharray="" stroke-dashoffset="0" font-family="none" font-weight="none" font-size="none" text-anchor="none" style="mix-blend-mode: normal"><g transform="scale(10.66667,10.66667)"><path d="M12,18c3.3137,0 6,-2.6863 6,-6c0,-3.31371 -2.6863,-6 -6,-6c-3.31371,0 -6,2.68629 -6,6c0,3.3137 2.68629,6 6,6zM12,16c2.2091,0 4,-1.7909 4,-4c0,-2.20914 -1.7909,-4 -4,-4c-2.20914,0 -4,1.79086 -4,4c0,2.2091 1.79086,4 4,4z" fill-rule="evenodd"></path><path d="M18,5c-0.5523,0 -1,0.44772 -1,1c0,0.55228 0.4477,1 1,1c0.5523,0 1,-0.44772 1,-1c0,-0.55228 -0.4477,-1 -1,-1z" fill-rule="nonzero"></path><path d="M1.65396,4.27606c-0.65396,1.28347 -0.65396,2.96363 -0.65396,6.32394v2.8c0,3.3603 0,5.0405 0.65396,6.3239c0.57524,1.129 1.49312,2.0469 2.6221,2.6221c1.28347,0.654 2.96363,0.654 6.32394,0.654h2.8c3.3603,0 5.0405,0 6.3239,-0.654c1.129,-0.5752 2.0469,-1.4931 2.6221,-2.6221c0.654,-1.2834 0.654,-2.9636 0.654,-6.3239v-2.8c0,-3.36031 0,-5.04047 -0.654,-6.32394c-0.5752,-1.12898 -1.4931,-2.04686 -2.6221,-2.6221c-1.2834,-0.65396 -2.9636,-0.65396 -6.3239,-0.65396h-2.8c-3.36031,0 -5.04047,0 -6.32394,0.65396c-1.12898,0.57524 -2.04686,1.49312 -2.6221,2.6221zM13.4,3h-2.8c-1.71316,0 -2.87775,0.00156 -3.77792,0.0751c-0.87684,0.07164 -1.32524,0.20149 -1.63804,0.36087c-0.75265,0.3835 -1.36457,0.99542 -1.74807,1.74807c-0.15938,0.3128 -0.28923,0.7612 -0.36087,1.63804c-0.07354,0.90017 -0.0751,2.06476 -0.0751,3.77792v2.8c0,1.7132 0.00156,2.8777 0.0751,3.7779c0.07164,0.8769 0.20149,1.3253 0.36087,1.6381c0.3835,0.7526 0.99542,1.3645 1.74807,1.748c0.3128,0.1594 0.7612,0.2893 1.63804,0.3609c0.90017,0.0735 2.06476,0.0751 3.77792,0.0751h2.8c1.7132,0 2.8777,-0.0016 3.7779,-0.0751c0.8769,-0.0716 1.3253,-0.2015 1.6381,-0.3609c0.7526,-0.3835 1.3645,-0.9954 1.748,-1.748c0.1594,-0.3128 0.2893,-0.7612 0.3609,-1.6381c0.0735,-0.9002 0.0751,-2.0647 0.0751,-3.7779v-2.8c0,-1.71316 -0.0016,-2.87775 -0.0751,-3.77792c-0.0716,-0.87684 -0.2015,-1.32524 -0.3609,-1.63804c-0.3835,-0.75265 -0.9954,-1.36457 -1.748,-1.74807c-0.3128,-0.15938 -0.7612,-0.28923 -1.6381,-0.36087c-0.9002,-0.07354 -2.0647,-0.0751 -3.7779,-0.0751z" fill-rule="evenodd"></path></g></g></svg>