<svg version="1.1" xmlns="http://www.w3.org/2000/svg" xmlns:xlink="http://www.w3.org/1999/xlink" width="800px" height="800px" viewBox="0,0,256,256"><g fill="#fffdfd" fill-rule="nonzero" stroke="none" stroke-width="1" stroke-linecap="butt" stroke-linejoin="miter" stroke-miterlimit="10" stroke-dasharray="" stroke-dashoffset="0" font-family="none" font-weight="none" font-size="none" text-anchor="none" style="mix-blend-mode: normal"><g transform="translate(-0.00196,0.00781) scale(10.66667,10.66667)"><path d="M18.72,3.99997h-13.35c-0.17207,-0.00806 -0.34405,0.01789 -0.50608,0.07638c-0.16203,0.05849 -0.31093,0.14836 -0.43819,0.26446c-0.12725,0.11611 -0.23036,0.25618 -0.30341,0.41218c-0.07305,0.15601 -0.11462,0.32489 -0.12232,0.49698v13.38003c0.01008,0.3601 0.15766,0.7028 0.41243,0.9575c0.25477,0.2548 0.59741,0.4024 0.95757,0.4125h13.35c0.3501,-0.0156 0.6802,-0.1678 0.9195,-0.4239c0.2393,-0.2561 0.3687,-0.5957 0.3605,-0.9461v-13.38003c0.0029,-0.1675 -0.0285,-0.33381 -0.0922,-0.48875c-0.0637,-0.15493 -0.1584,-0.29522 -0.2783,-0.41227c-0.1198,-0.11704 -0.2623,-0.20836 -0.4187,-0.26837c-0.1564,-0.06001 -0.3234,-0.08744 -0.4908,-0.08061zM9,17.34h-2.33v-7.13h2.33zM7.89,9.12997c-0.16259,0.00567 -0.3246,-0.02235 -0.47584,-0.08229c-0.15125,-0.05994 -0.28847,-0.15051 -0.40303,-0.26602c-0.11457,-0.11551 -0.20402,-0.25346 -0.26272,-0.40519c-0.05871,-0.15173 -0.0854,-0.31396 -0.07841,-0.4765c-0.00719,-0.1643 0.02004,-0.32828 0.07995,-0.48143c0.05991,-0.15316 0.15117,-0.2921 0.26792,-0.40791c0.11676,-0.11582 0.25643,-0.20595 0.41006,-0.26461c0.15364,-0.05867 0.31784,-0.08457 0.48207,-0.07605c0.16259,-0.00566 0.3246,0.02235 0.47584,0.08229c0.15125,0.05994 0.28847,0.15051 0.40303,0.26602c0.11457,0.11551 0.20402,0.25346 0.26272,0.40519c0.05871,0.15173 0.0854,0.31396 0.07841,0.4765c0.00719,0.1643 -0.02004,0.32828 -0.07995,0.48143c-0.05991,0.15316 -0.15117,0.2921 -0.26792,0.40791c-0.11676,0.11582 -0.25643,0.20595 -0.41006,0.26461c-0.15364,0.05867 -0.31784,0.08457 -0.48207,0.07605zM17.34,17.34h-2.34v-3.9c0,-0.93 -0.33,-1.57 -1.16,-1.57c-0.2578,0.0022 -0.5087,0.0841 -0.7181,0.2345c-0.2095,0.1504 -0.3673,0.3619 -0.4519,0.6055c-0.065,0.1826 -0.0922,0.3765 -0.08,0.57v4.06h-2.3v-7.13h2.3v1c0.2045,-0.3757 0.5088,-0.6875 0.8794,-0.9011c0.3706,-0.2135 0.793,-0.32042 1.2206,-0.30893c1.51,0 2.65,1.00003 2.65,3.13003z"></path></g></g></svg>