<svg version="1.1" xmlns="http://www.w3.org/2000/svg" xmlns:xlink="http://www.w3.org/1999/xlink" width="800px" height="800px" viewBox="0,0,256,256"><g fill="#fffdfd" fill-rule="none" stroke="none" stroke-width="1" stroke-linecap="butt" stroke-linejoin="miter" stroke-miterlimit="10" stroke-dasharray="" stroke-dashoffset="0" font-family="none" font-weight="none" font-size="none" text-anchor="none" style="mix-blend-mode: normal"><g transform="translate(0,-4.08813) scale(10.66667,10.66667)"><path d="M6.014,8.00613c0.11427,-0.90373 1.28877,-2.13199 2.22088,-1.9957l-0.00149,-0.00149c0.90712,0.17238 1.6252,1.73367 2.03011,2.43571c0.2869,0.50937 0.1006,1.02545 -0.167,1.24322c-0.361,0.29096 -0.92551,0.69243 -0.80707,1.09553c0.21057,0.7166 2.71057,3.2166 3.94017,3.9273c0.4654,0.269 0.8029,-0.4405 1.0911,-0.804c0.2094,-0.2796 0.7259,-0.4467 1.2341,-0.1707c0.759,0.442 1.474,0.9557 2.1352,1.534c0.3302,0.276 0.4077,0.6839 0.1789,1.115c-0.403,0.7593 -1.5686,1.7606 -2.4147,1.5571c-1.4778,-0.3553 -7.4542,-2.6721 -9.37387,-9.38409c-0.10796,-0.31753 -0.08078,-0.43757 -0.06633,-0.55188z" fill-rule="nonzero"></path><path d="M12,23c-1.2236,0 -1.9006,-0.1313 -3,-0.5l-2.10557,1.0528c-1.32981,0.6649 -2.89443,-0.3021 -2.89443,-1.7889v-2.2639c-2.15345,-2.008 -3,-4.3233 -3,-7.5c0,-6.07513 4.92487,-11 11,-11c6.0751,0 11,4.92487 11,11c0,6.0751 -4.9249,11 -11,11zM6,18.6303l-0.63605,-0.5931c-1.67308,-1.56 -2.36395,-3.3041 -2.36395,-6.0372c0,-4.97056 4.02944,-9 9,-9c4.9706,0 9,4.02944 9,9c0,4.9706 -4.0294,9 -9,9c-0.9857,0 -1.448,-0.089 -2.36405,-0.3962l-0.78748,-0.2641l-2.84847,1.4242z" fill-rule="evenodd"></path></g></g></svg>